# xmcd CD database file
#
# Track frame offsets:
#	150
#	36848
#	67053
#	70686
#	76426
#	79806
#	84917
#	89878
#	95611
#	103940
#	108965
#	113676
#	116357
#	122973
#	129443
#	132578
#	138774
#	144047
#	148322
#	168606
#	186171
#	211509
#
# Disc length: 4359 seconds
#
# Revision: 2
# Processed by: cddbd v1.5.2PL0 Copyright (c) Steve Scherf et al.
# Submitted via: CDex 1.51
#
DISCID=3d110516
DTITLE=Johannes Brahms - Waltzes - Two Rhapsodies - Three Intermezzi  (Jeno Jando, piano)
DYEAR=2005
DGENRE=Piano
TTITLE0=Rhapsody N°1  in B minor - Agitato
TTITLE1=Rhapsody N°2  in G minor - Molto passionato, ma non troppo allegro
TTITLE2=Waltze Op.39 - N°01  in B major - Tempo giusto
TTITLE3=Waltze Op.39 - N°02  in E major
TTITLE4=Waltze Op.39 - N°03  in G sharp minor
TTITLE5=Waltze Op.39 - N°04  in E minor - Poco sustenuto
TTITLE6=Waltze Op.39 - N°05  in E major - Grazioso
TTITLE7=Waltze Op.39 - N°06  in C sharp major - Vivace
TTITLE8=Waltze Op.39 - N°07  in C sharp minor - Poco piu andante
TTITLE9=Waltze Op.39 - N°08  in B flat major
TTITLE10=Waltze Op.39 - N°09  in D minor
TTITLE11=Waltze Op.39 - N°10  in G major
TTITLE12=Waltze Op.39 - N°11  in B minor
TTITLE13=Waltze Op.39 - N°12  in E major
TTITLE14=Waltze Op.39 - N°13  in B minor
TTITLE15=Waltze Op.39 - N°14  in G sharp minor
TTITLE16=Waltze Op.39 - N°15  in A flat major
TTITLE17=Waltze Op.39 - N°16  in C sharp minor
TTITLE18=Intermezzo N°1 in E flat major -  Andante moderato
TTITLE19=Intermezzo N°2 in B flat minor - Andante non troppo e con molta espressione
TTITLE20=Intermezzo N°3 in C sharp minor - Andante con moto
TTITLE21=Variations and Fugue on a Theme by Handel, Op.24
EXTD=YEAR: 2005
EXTT0=
EXTT1=
EXTT2=
EXTT3=
EXTT4=
EXTT5=
EXTT6=
EXTT7=
EXTT8=
EXTT9=
EXTT10=
EXTT11=
EXTT12=
EXTT13=
EXTT14=
EXTT15=
EXTT16=
EXTT17=
EXTT18=
EXTT19=
EXTT20=
EXTT21=
PLAYORDER=
